# File created by Blade
# Date/Time:  Wed Sep 24 19:42:34 2014
# Frame Rate: 120.000 fps
#------------------------------------------------------
:FULLY-SPECIFIED
:DEGREES
2045
root -5.129206 33.012949 -3.442569 8.047571 0.858706 -1.944566
Spine -14.242417 12.840547 -8.684680
Head 12.623805 -14.524728 10.590637
LeftShoulder -14.776683 24.990449 4.565093
LeftArm 24.876525 24.318976 -60.875095
LeftForeArm 3.307430 -0.000000 26.455102
LeftHand -25.076425 -0.000000 -6.126857
LeftHandThumb1 -26.253704 0.000000 33.147579
RightShoulder 160.727825 164.052621 130.952176
RightArm 80.797157 38.825144 48.104516
RightForeArm -2.149820 -0.000000 87.052634
RightHand -4.380506 -0.000000 29.400078
RightHandThumb1 -24.326973 -0.000000 -32.862282
LeftUpLeg -2.457668 6.032217 6.430922
LeftLeg -1.501313 -0.000000 0.000000
LeftFoot -8.084321 4.734717 -20.236054
LeftToeBase 10.419280 -0.000000 -0.000000
RightUpLeg -4.825816 -6.416091 0.844795
RightLeg 2.114163 -0.000000 -0.000000
RightFoot -6.302967 -5.024767 -16.405455
RightToeBase 0.825820 -0.000000 -0.000000
2046
root -5.131372 33.012989 -3.445311 8.043978 0.863789 -1.948868
Spine -14.260517 12.867266 -8.707495
Head 12.677666 -14.533750 10.522038
LeftShoulder -14.772819 24.977598 4.539735
LeftArm 24.865535 24.332544 -60.860714
LeftForeArm 3.322018 -0.000000 26.432076
LeftHand -25.106487 -0.000000 -5.920367
LeftHandThumb1 -26.253704 0.000000 33.147579
RightShoulder 160.768501 164.057666 130.944689
RightArm 80.670455 38.756448 47.891787
RightForeArm -2.143884 -0.000000 86.994537
RightHand -4.357526 0.000000 29.344438
RightHandThumb1 -24.326973 -0.000000 -32.862282
LeftUpLeg -2.464648 6.030229 6.438987
LeftLeg -1.491245 -0.000000 0.000000
LeftFoot -8.088578 4.728934 -20.243845
LeftToeBase 10.415837 -0.000000 -0.000000
RightUpLeg -4.832865 -6.408831 0.851232
RightLeg 2.128108 -0.000000 -0.000000
RightFoot -6.307585 -5.027340 -16.381359
RightToeBase 0.827031 -0.000000 -0.000000
2047
root -5.133494 33.012977 -3.447749 8.038529 0.860159 -1.951901
Spine -14.276287 12.890057 -8.730959
Head 12.727161 -14.521168 10.453915
LeftShoulder -14.788601 24.961032 4.512895
LeftArm 24.852008 24.348355 -60.849383
LeftForeArm 3.302292 -0.000000 26.424454
LeftHand -25.134388 -0.000000 -5.903910
LeftHandThumb1 -26.253704 0.000000 33.147579
RightShoulder 160.808334 164.075120 130.944304
RightArm 80.579296 38.686922 47.718285
RightForeArm -2.124533 -0.000000 86.942765
RightHand -4.358339 -0.000000 29.304232
RightHandThumb1 -24.326973 -0.000000 -32.862282
LeftUpLeg -2.463670 6.040226 6.444828
LeftLeg -1.490721 -0.000000 0.000000
LeftFoot -8.084112 4.727312 -20.225745
LeftToeBase 10.415440 -0.000000 -0.000000
RightUpLeg -4.842599 -6.427077 0.859497
RightLeg 2.148541 -0.000000 -0.000000
RightFoot -6.323293 -5.013454 -16.422297
RightToeBase 0.857799 -0.000000 -0.000000
2048
root -5.136865 33.013087 -3.451863 8.033894 0.863162 -1.955042
Spine -14.287312 12.908049 -8.767333
Head 12.776577 -14.507928 10.399112
LeftShoulder -14.789211 25.017022 4.491366
LeftArm 24.906281 24.328190 -60.822638
LeftForeArm 3.300341 -0.000000 26.412664
LeftHand -25.167079 -0.000000 -5.940990
LeftHandThumb1 -26.253704 0.000000 33.147579
RightShoulder 160.843515 164.074168 130.963889
RightArm 80.496435 38.606174 47.541595
RightForeArm -2.091401 -0.000000 86.878786
RightHand -4.334770 0.000000 29.324661
RightHandThumb1 -24.326973 -0.000000 -32.862282
LeftUpLeg -2.472253 6.025446 6.455324
LeftLeg -1.479014 -0.000000 0.000000
LeftFoot -8.082658 4.733716 -20.250214
LeftToeBase 10.415759 -0.000000 -0.000000
RightUpLeg -4.847885 -6.422428 0.866472
RightLeg 2.155554 -0.000000 -0.000000
RightFoot -6.321327 -5.002383 -16.404343
RightToeBase 0.833441 -0.000000 -0.000000
2049
root -5.139034 33.013151 -3.455339 8.027495 0.852566 -1.956080
Spine -14.297070 12.938600 -8.801883
Head 12.825410 -14.492655 10.346549
LeftShoulder -14.795131 25.031907 4.466932
LeftArm 24.916526 24.326731 -60.806482
LeftForeArm 3.285937 0.000000 26.410209
LeftHand -25.154097 -0.000000 -5.970178
LeftHandThumb1 -26.253704 0.000000 33.147579
RightShoulder 160.893311 164.076773 130.967723
RightArm 80.337658 38.566598 47.289290
RightForeArm -2.097645 -0.000000 86.839676
RightHand -4.277717 -0.000000 29.281485
RightHandThumb1 -24.326973 -0.000000 -32.862282
LeftUpLeg -2.472505 6.046059 6.458181
LeftLeg -1.476201 -0.000000 0.000000
LeftFoot -8.077009 4.727063 -20.239746
LeftToeBase 10.392653 -0.000000 -0.000000
RightUpLeg -4.858651 -6.403856 0.870635
RightLeg 2.177236 -0.000000 -0.000000
RightFoot -6.327783 -5.026119 -16.424379
RightToeBase 0.827738 -0.000000 -0.000000
2050
root -5.141382 33.013387 -3.458817 8.018507 0.852603 -1.955154
Spine -14.298195 12.967098 -8.839584
Head 12.870508 -14.500285 10.293415
LeftShoulder -14.789791 25.047489 4.438803
LeftArm 24.916121 24.314831 -60.793713
LeftForeArm 3.312811 -0.000000 26.431922
LeftHand -25.174319 0.000000 -5.957958
LeftHandThumb1 -26.253704 0.000000 33.147579
RightShoulder 160.921180 164.097597 130.976099
RightArm 80.279986 38.483514 47.143230
RightForeArm -2.118507 -0.000000 86.778385
RightHand -4.220376 -0.000000 29.354926
RightHandThumb1 -24.326973 -0.000000 -32.862282
LeftUpLeg -2.474464 6.039441 6.462396
LeftLeg -1.465739 -0.000000 0.000000
LeftFoot -8.076291 4.725714 -20.268690
LeftToeBase 10.428554 -0.000000 -0.000000
RightUpLeg -4.862429 -6.400607 0.874399
RightLeg 2.189873 -0.000000 -0.000000
RightFoot -6.326370 -5.037771 -16.418411
RightToeBase 0.834198 -0.000000 -0.000000
2051
root -5.144946 33.013479 -3.462800 8.015326 0.846752 -1.960177
Spine -14.306395 12.984830 -8.871872
Head 12.910692 -14.470492 10.246704
LeftShoulder -14.805990 25.043553 4.413578
LeftArm 24.901421 24.324603 -60.781018
LeftForeArm 3.274413 0.000000 26.446387
LeftHand -25.153207 -0.000000 -5.937745
LeftHandThumb1 -26.253704 0.000000 33.147579
RightShoulder 160.954879 164.130754 130.974071
RightArm 80.200196 38.422621 47.006524
RightForeArm -2.072348 -0.000000 86.748493
RightHand -4.195467 0.000000 29.387872
RightHandThumb1 -24.326973 -0.000000 -32.862282
LeftUpLeg -2.482327 6.043554 6.473810
LeftLeg -1.453745 -0.000000 0.000000
LeftFoot -8.080851 4.728095 -20.254676
LeftToeBase 10.434187 -0.000000 -0.000000
RightUpLeg -4.871944 -6.400232 0.885697
RightLeg 2.199408 -0.000000 -0.000000
RightFoot -6.331556 -5.029826 -16.429312
RightToeBase 0.857974 -0.000000 -0.000000
2052
root -5.147318 33.014264 -3.468172 8.013956 0.839494 -1.955982
Spine -14.314236 12.994689 -8.927845
Head 12.962496 -14.437344 10.235683
LeftShoulder -14.832148 25.062755 4.394543
LeftArm 24.914968 24.318994 -60.778989
LeftForeArm 3.331348 0.000000 26.445566
LeftHand -25.074244 -0.000000 -5.904773
LeftHandThumb1 -26.253704 0.000000 33.147579
RightShoulder 160.994841 164.126242 130.990846
RightArm 80.062494 38.345954 46.812551
RightForeArm -2.114578 -0.000000 86.747957
RightHand -4.148005 -0.000000 29.445044
RightHandThumb1 -24.326973 -0.000000 -32.862282
LeftUpLeg -2.494283 6.034431 6.472087
LeftLeg -1.443677 -0.000000 0.000000
LeftFoot -8.081372 4.749979 -20.255921
LeftToeBase 10.418272 -0.000000 -0.000000
RightUpLeg -4.890581 -6.387740 0.885158
RightLeg 2.221311 -0.000000 -0.000000
RightFoot -6.330705 -5.037224 -16.425525
RightToeBase 0.805616 -0.000000 -0.000000
2053
root -5.150595 33.014167 -3.472509 8.013059 0.842307 -1.962189
Spine -14.321332 13.017959 -8.969506
Head 13.000143 -14.440107 10.204315
LeftShoulder -14.843973 25.055601 4.384230
LeftArm 24.911070 24.333139 -60.770490
LeftForeArm 3.336117 -0.000000 26.469585
LeftHand -25.162399 -0.000000 -5.848052
LeftHandThumb1 -26.253704 0.000000 33.147579
RightShoulder 161.014887 164.133248 130.994628
RightArm 79.934649 38.277167 46.621606
RightForeArm -2.032037 -0.000000 86.723764
RightHand -4.115936 -0.000000 29.455449
RightHandThumb1 -24.326973 -0.000000 -32.862282
LeftUpLeg -2.503207 6.031858 6.484323
LeftLeg -1.439857 -0.000000 0.000000
LeftFoot -8.073818 4.741468 -20.281955
LeftToeBase 10.453892 -0.000000 -0.000000
RightUpLeg -4.898806 -6.382573 0.896820
RightLeg 2.225803 -0.000000 -0.000000
RightFoot -6.329530 -5.049788 -16.437385
RightToeBase 0.833623 -0.000000 -0.000000
2054
root -5.153635 33.014360 -3.477587 8.018998 0.842340 -1.966076
Spine -14.334033 13.058379 -9.008476
Head 13.052872 -14.463575 10.142778
LeftShoulder -14.850442 25.060761 4.354356
LeftArm 24.928777 24.324777 -60.747820
LeftForeArm 3.299995 0.000000 26.473187
LeftHand -25.067808 -0.000000 -5.874434
LeftHandThumb1 -26.253704 0.000000 33.147579
RightShoulder 160.995492 164.249766 130.965732
RightArm 79.912281 38.228796 46.569260
RightForeArm -2.025884 0.000000 86.714165
RightHand -4.043005 -0.000000 29.487244
RightHandThumb1 -24.326973 -0.000000 -32.862282
LeftUpLeg -2.523368 6.031837 6.491774
LeftLeg -1.430812 -0.000000 0.000000
LeftFoot -8.070330 4.744433 -20.277217
LeftToeBase 10.416383 -0.000000 -0.000000
RightUpLeg -4.924141 -6.398550 0.907367
RightLeg 2.246706 -0.000000 -0.000000
RightFoot -6.331930 -5.026011 -16.442365
RightToeBase 0.813347 -0.000000 -0.000000
2055
root -5.156033 33.014643 -3.482108 8.019831 0.848830 -1.970625
Spine -14.341973 13.078309 -9.045806
Head 13.118456 -14.459402 10.108385
LeftShoulder -14.855329 25.062462 4.334959
LeftArm 24.916007 24.330111 -60.745501
LeftForeArm 3.351022 -0.000000 26.507402
LeftHand -25.097352 0.000000 -5.827427
LeftHandThumb1 -26.253704 0.000000 33.147579
RightShoulder 161.011677 164.273224 130.955985
RightArm 79.798322 38.169157 46.402980
RightForeArm -1.955225 -0.000000 86.719793
RightHand -4.021375 -0.000000 29.551890
RightHandThumb1 -24.326973 -0.000000 -32.862282
LeftUpLeg -2.536402 6.003226 6.502981
LeftLeg -1.424681 -0.000000 0.000000
LeftFoot -8.070797 4.765082 -20.268167
LeftToeBase 10.403442 -0.000000 -0.000000
RightUpLeg -4.936425 -6.403708 0.917483
RightLeg 2.254715 -0.000000 -0.000000
RightFoot -6.331854 -5.020443 -16.437758
RightToeBase 0.811286 -0.000000 -0.000000
2056
root -5.159062 33.014891 -3.486572 8.021488 0.850131 -1.975507
Spine -14.350315 13.089510 -9.088511
Head 13.194646 -14.430193 10.095828
LeftShoulder -14.872674 25.048955 4.326541
LeftArm 24.899883 24.325148 -60.760402
LeftForeArm 3.299943 -0.000000 26.503096
LeftHand -25.118261 -0.000000 -5.909747
LeftHandThumb1 -26.253704 0.000000 33.147579
RightShoulder 161.030950 164.277519 130.962759
RightArm 79.698977 38.108462 46.253703
RightForeArm -1.859834 -0.000000 86.717162
RightHand -3.976508 -0.000000 29.613562
RightHandThumb1 -24.326973 -0.000000 -32.862282
LeftUpLeg -2.546811 6.012829 6.510890
LeftLeg -1.423938 -0.000000 0.000000
LeftFoot -8.064367 4.766590 -20.264375
LeftToeBase 10.371763 -0.000000 -0.000000
RightUpLeg -4.951198 -6.399318 0.927276
RightLeg 2.267869 -0.000000 -0.000000
RightFoot -6.343598 -5.023105 -16.437970
RightToeBase 0.882417 -0.000000 -0.000000
2057
root -5.161089 33.015703 -3.491571 8.030366 0.859994 -1.975809
Spine -14.368641 13.107840 -9.137577
Head 13.292640 -14.393099 10.095761
LeftShoulder -14.867971 25.051992 4.325328
LeftArm 24.892541 24.324405 -60.778584
LeftForeArm 3.278185 -0.000000 26.485770
LeftHand -25.133199 -0.000000 -5.889714
LeftHandThumb1 -26.253704 0.000000 33.147579
RightShoulder 161.036404 164.349595 131.003058
RightArm 79.688772 38.074581 46.132378
RightForeArm -1.785718 -0.000000 86.701591
RightHand -3.974180 0.000000 29.608326
RightHandThumb1 -24.326973 -0.000000 -32.862282
LeftUpLeg -2.572999 6.001346 6.515201
LeftLeg -1.411555 -0.000000 0.000000
LeftFoot -8.069298 4.776882 -20.278669
LeftToeBase 10.450067 -0.000000 -0.000000
RightUpLeg -4.973313 -6.411468 0.934045
RightLeg 2.276106 -0.000000 -0.000000
RightFoot -6.332665 -5.020802 -16.420767
RightToeBase 0.875468 -0.000000 -0.000000
